<svg width="66" height="30" viewBox="0 0 66 30" fill="none" xmlns="http://www.w3.org/2000/svg">
<path d="M1.49012e-08 29V28.48C2.8 28.2 3.2 27.92 3.2 25.72V4.2C3.2 2 2.8 1.72 1.49012e-08 1.44V0.919999H11.84C22.72 0.919999 27.68 6.96 27.68 14.4C27.68 23.44 21.2 29 12.84 29H1.49012e-08ZM11 1.68H9.08V25.32C9.08 27.76 10.12 28.28 12.24 28.28H12.8C17.84 28.28 21.48 23.56 21.48 15.16C21.48 7.52 18.2 1.68 11 1.68ZM55.7331 24.96L53.4531 5.28L45.3331 29.12H44.5331L35.4131 5.28L33.1331 25.32C32.8531 27.92 33.8931 28.28 37.2131 28.48V29H28.5731V28.48C30.8131 28.36 31.8931 27.92 32.0931 26.08L34.6131 4.4C34.6131 2.4 33.6931 1.56 31.0531 1.44V0.919999H40.2131C40.2931 1.84 40.5331 2.48 40.8531 3.36L47.3731 20.6L53.1731 3.32C53.4531 2.4 53.6931 1.84 53.7731 0.919999H62.7331V1.44C59.9331 1.56 59.2131 2.4 59.2131 4.4L61.7331 26.08C61.9331 28 62.6931 28.36 65.0131 28.48V29H52.2531V28.48C55.4131 28.32 56.0531 27.88 55.7331 24.96Z" fill="white"/>
</svg>
